<svg xmlns="http://www.w3.org/2000/svg" version="1.1" xmlns:xlink="http://www.w3.org/1999/xlink" xmlns:svgjs="http://svgjs.dev/svgjs" width="2000" height="2250" viewBox="0 0 2000 2250"><g transform="matrix(1,0,0,1,0,0)"><svg viewBox="0 0 320 360" data-background-color="#000000" preserveAspectRatio="xMidYMid meet" height="2250" width="2000" xmlns="http://www.w3.org/2000/svg" xmlns:xlink="http://www.w3.org/1999/xlink"><g id="tight-bounds" transform="matrix(1,0,0,1,0,0)"><svg viewBox="0 0 320 360" height="360" width="320"><rect width="320" height="360" fill="url(#53d36927-7ad3-464a-ac85-c780bd5901f4)" mask="url(#13e97dbf-43ad-4b3a-a6ae-ddce71388f90)" data-fill-palette-color="tertiary"></rect><g><svg></svg></g><g><svg viewBox="0 0 320 360" height="360" width="320"><g><path d="M297.491 100.645c-12.426-21.51-112.674-79.355-137.491-79.355-24.817 0-125.028 57.845-137.491 79.355-11.591 20.02-11.591 138.726 0 158.746 12.463 21.474 112.674 79.319 137.491 79.319 24.817 0 125.064-57.845 137.491-79.355 11.591-20.02 11.591-138.69 0-158.71zM309.481 93.705c-14.461-24.998-119.469-86.295-149.481-86.295-30.012 0-135.02 61.297-149.481 86.295-14.025 24.199-14.025 148.391 0 172.59 14.461 24.998 119.469 86.295 149.481 86.295 30.012 0 135.02-61.297 149.481-86.259 14.025-24.235 14.025-148.427 0-172.626zM300.906 261.353c-12.753 22.055-115.472 81.317-140.906 81.318-25.434 0-128.153-59.298-140.906-81.354-11.881-20.529-11.881-142.178 0-162.707 12.753-22.019 115.472-81.281 140.906-81.281 25.434 0 128.153 59.298 140.906 81.318 11.881 20.529 11.881 142.178 0 162.706z" fill="url(#53d36927-7ad3-464a-ac85-c780bd5901f4)" fill-rule="nonzero" stroke="none" stroke-width="1" stroke-linecap="butt" stroke-linejoin="miter" stroke-miterlimit="10" stroke-dasharray="" stroke-dashoffset="0" font-family="none" font-weight="none" font-size="none" text-anchor="none" style="mix-blend-mode: normal" data-fill-palette-color="tertiary"></path></g><g transform="matrix(1,0,0,1,48,146.0561149653122)"><svg viewBox="0 0 224 67.88777006937562" height="67.88777006937562" width="224"><g><svg viewBox="0 0 224 67.88777006937562" height="67.88777006937562" width="224"><g><svg viewBox="0 0 224 67.88777006937562" height="67.88777006937562" width="224"><g id="textblocktransform"><svg viewBox="0 0 224 67.88777006937562" height="67.88777006937562" width="224" id="textblock"><g><svg viewBox="0 0 224 67.88777006937562" height="67.88777006937562" width="224"><path d="M223.476 14.561C222.422 7.514 219.421 5.555 219.421 5.555 210.207-1.703 198.707-0.139 188.377 0.904 170.137 0.946 151.972 2.497 133.775 3.328 95.58 3.455 57.059 1.369 19.053 6.513 15.483 8.092-3.704 6.823 0.635 15.463 1.772 19.056 5.921 23.045 5.795 26.343 6.364 26.921 7.154 25.596 7.49 26.427 8.67 28.668 10.597 27.611 12.177 28.936 9.976 32.473 11.555 35.419 13.061 38.505 10.408 39.309 7.006 38.928 5.479 41.592 5.321 43.523 4.468 43.156 3.531 43.072 2.846 43.015 1.467 43.227 1.699 43.833 2.488 45.904-0.902 47.102 1.225 49.132-0.239 51.33 2.236 53.233 1.899 55.615 1.857 56.094 2.088 56.503 2.457 56.615 4.089 57.222 1.709 58.405 1.962 59.688 18.706 68.454 36.871 62.394 54.026 66.425 58.48 63.606 55.131 67.425 56.911 66.833 58.301 66.143 59.312 69.004 60.881 67.383 61.123 66.918 60.755 65.819 61.618 66.03 62.071 66.143 62.471 66.114 62.535 65.466 62.629 64.494 61.797 65.1 61.576 64.592 63.967 62.027 63.377 68.13 65.62 67.876 65.515 67.129 64.862 66.058 66.199 66.199 67.526 65.128 67.568 64.24 68.748 66.65 68.79 67.171 69 67.538 69.337 67.792 73.023 65.17 76.688 68.722 80.553 67.538 82.922 66.241 85.197 68.243 87.598 67.749 88.44 67.355 89.293 66.65 90.104 67.834 100.034 68.088 110.618 67.031 120.032 67.876 145.19 66.298 172.075 68.524 198.602 66.439 204.857 65.635 211.355 64.494 217.452 63.578 217.452 63.578 222.391 61.069 222.391 49.794S223.444 39.929 223.602 30.951C223.76 21.974 224.497 21.607 223.444 14.561Z" opacity="1" fill="url(#53d36927-7ad3-464a-ac85-c780bd5901f4)" data-fill-palette-color="tertiary"></path><g transform="matrix(1,0,0,1,31.584000000000003,19.1)"><svg width="160.832" viewBox="5.4 -36.75 201.78 37.25" height="29.687770069375617" data-palette-color="#000000"><path d="M5.4-33L17.05-33Q20.4-33 22.88-31.78 25.35-30.55 26.75-28.3 28.15-26.05 28.15-22.95L28.15-22.95Q28.15-19.85 26.75-17.6 25.35-15.35 22.88-14.13 20.4-12.9 17.05-12.9L17.05-12.9 9.4-12.9 9.4 0 5.4 0 5.4-33ZM9.4-16.65L16.45-16.65Q20.35-16.65 22.15-18.28 23.95-19.9 23.95-22.95L23.95-22.95Q23.95-26.05 22.15-27.65 20.35-29.25 16.45-29.25L16.45-29.25 9.4-29.25 9.4-16.65ZM45.5-25.5L45.5-25.5Q49.05-25.5 51.77-23.95 54.5-22.4 56.05-19.48 57.6-16.55 57.6-12.5L57.6-12.5Q57.6-8.45 56.05-5.53 54.5-2.6 51.77-1.05 49.05 0.5 45.5 0.5L45.5 0.5Q42 0.5 39.25-1.05 36.5-2.6 34.95-5.53 33.4-8.45 33.4-12.5L33.4-12.5Q33.4-16.55 34.95-19.48 36.5-22.4 39.25-23.95 42-25.5 45.5-25.5ZM45.5-22.05L45.5-22.05Q42.95-22.05 41.15-20.9 39.35-19.75 38.37-17.63 37.4-15.5 37.4-12.5L37.4-12.5Q37.4-9.55 38.37-7.4 39.35-5.25 41.15-4.1 42.95-2.95 45.5-2.95L45.5-2.95Q48.05-2.95 49.85-4.1 51.65-5.25 52.62-7.4 53.6-9.55 53.6-12.5L53.6-12.5Q53.6-15.5 52.62-17.63 51.65-19.75 49.85-20.9 48.05-22.05 45.5-22.05ZM69.15 0L65.15 0 65.15-25 68.4-25 68.95-20.9Q70-23.2 72.02-24.35 74.05-25.5 76.95-25.5L76.95-25.5Q77.59-25.5 78.37-25.4 79.15-25.3 79.7-25L79.7-25 79-21.35Q78.45-21.55 77.8-21.65 77.15-21.75 75.95-21.75L75.95-21.75Q74.4-21.75 72.82-20.85 71.25-19.95 70.2-18.13 69.15-16.3 69.15-13.5L69.15-13.5 69.15 0ZM87.44-31L91.44-32.1 91.44-6.9Q91.44-5.05 92.49-4.15 93.54-3.25 95.19-3.25L95.19-3.25Q96.64-3.25 97.69-3.75 98.74-4.25 99.59-5.1L99.59-5.1 100.99-1.75Q99.84-0.7 98.27-0.1 96.69 0.5 94.64 0.5L94.64 0.5Q92.74 0.5 91.09-0.18 89.44-0.85 88.47-2.33 87.49-3.8 87.44-6.2L87.44-6.2 87.44-31ZM82.44-25L100.54-25 100.54-21.55 82.44-21.55 82.44-25ZM116.64-36.75L116.64-36.75Q117.94-36.75 119.09-36.45 120.24-36.15 120.89-35.6L120.89-35.6 119.84-32.35Q119.24-32.75 118.54-32.93 117.84-33.1 116.99-33.1L116.99-33.1Q114.84-33.1 113.64-32.08 112.44-31.05 112.44-28.8L112.44-28.8 112.44-25 112.44-23.7 112.44 0 108.44 0 108.44-29.2Q108.44-30.85 108.94-32.25 109.44-33.65 110.47-34.65 111.49-35.65 113.04-36.2 114.59-36.75 116.64-36.75ZM103.44-25L120.79-25 120.79-21.55 103.44-21.55 103.44-25ZM136.49-25.5L136.49-25.5Q140.04-25.5 142.76-23.95 145.49-22.4 147.04-19.48 148.59-16.55 148.59-12.5L148.59-12.5Q148.59-8.45 147.04-5.53 145.49-2.6 142.76-1.05 140.04 0.5 136.49 0.5L136.49 0.5Q132.99 0.5 130.24-1.05 127.49-2.6 125.94-5.53 124.39-8.45 124.39-12.5L124.39-12.5Q124.39-16.55 125.94-19.48 127.49-22.4 130.24-23.95 132.99-25.5 136.49-25.5ZM136.49-22.05L136.49-22.05Q133.94-22.05 132.14-20.9 130.34-19.75 129.36-17.63 128.39-15.5 128.39-12.5L128.39-12.5Q128.39-9.55 129.36-7.4 130.34-5.25 132.14-4.1 133.94-2.95 136.49-2.95L136.49-2.95Q139.04-2.95 140.84-4.1 142.64-5.25 143.61-7.4 144.59-9.55 144.59-12.5L144.59-12.5Q144.59-15.5 143.61-17.63 142.64-19.75 140.84-20.9 139.04-22.05 136.49-22.05ZM155.94-36.5L159.94-36.5 159.94-6.35Q159.94-4.45 160.64-3.73 161.34-3 162.89-3L162.89-3Q163.89-3 164.54-3.15 165.19-3.3 166.29-3.7L166.29-3.7 165.64-0.2Q164.84 0.15 163.89 0.33 162.94 0.5 161.94 0.5L161.94 0.5Q158.89 0.5 157.41-1.15 155.94-2.8 155.94-6.2L155.94-6.2 155.94-36.5ZM173.43-29.8L173.43-29.8Q172.08-29.8 171.26-30.63 170.43-31.45 170.43-32.8L170.43-32.8Q170.43-34.15 171.26-34.98 172.08-35.8 173.43-35.8L173.43-35.8Q174.78-35.8 175.61-34.98 176.43-34.15 176.43-32.8L176.43-32.8Q176.43-31.45 175.61-30.63 174.78-29.8 173.43-29.8ZM171.43-25L175.43-25 175.43 0 171.43 0 171.43-25ZM195.08-25.5L195.08-25.5Q198.63-25.5 201.36-23.95 204.08-22.4 205.63-19.48 207.18-16.55 207.18-12.5L207.18-12.5Q207.18-8.45 205.63-5.53 204.08-2.6 201.36-1.05 198.63 0.5 195.08 0.5L195.08 0.5Q191.58 0.5 188.83-1.05 186.08-2.6 184.53-5.53 182.98-8.45 182.98-12.5L182.98-12.5Q182.98-16.55 184.53-19.48 186.08-22.4 188.83-23.95 191.58-25.5 195.08-25.5ZM195.08-22.05L195.08-22.05Q192.53-22.05 190.73-20.9 188.93-19.75 187.96-17.63 186.98-15.5 186.98-12.5L186.98-12.5Q186.98-9.55 187.96-7.4 188.93-5.25 190.73-4.1 192.53-2.95 195.08-2.95L195.08-2.95Q197.63-2.95 199.43-4.1 201.23-5.25 202.21-7.4 203.18-9.55 203.18-12.5L203.18-12.5Q203.18-15.5 202.21-17.63 201.23-19.75 199.43-20.9 197.63-22.05 195.08-22.05Z" opacity="1" transform="matrix(1,0,0,1,0,0)" fill="#000000" class="wordmark-text-0" data-fill-palette-color="quaternary" id="text-0"></path></svg></g></svg></g></svg></g></svg></g><g></g></svg></g></svg></g></svg></g><defs></defs><mask id="13e97dbf-43ad-4b3a-a6ae-ddce71388f90"><g id="SvgjsG1165"><svg viewBox="0 0 320 360" height="360" width="320"><g><svg></svg></g><g><svg viewBox="0 0 320 360" height="360" width="320"><g><path d="M297.491 100.645c-12.426-21.51-112.674-79.355-137.491-79.355-24.817 0-125.028 57.845-137.491 79.355-11.591 20.02-11.591 138.726 0 158.746 12.463 21.474 112.674 79.319 137.491 79.319 24.817 0 125.064-57.845 137.491-79.355 11.591-20.02 11.591-138.69 0-158.71zM309.481 93.705c-14.461-24.998-119.469-86.295-149.481-86.295-30.012 0-135.02 61.297-149.481 86.295-14.025 24.199-14.025 148.391 0 172.59 14.461 24.998 119.469 86.295 149.481 86.295 30.012 0 135.02-61.297 149.481-86.259 14.025-24.235 14.025-148.427 0-172.626zM300.906 261.353c-12.753 22.055-115.472 81.317-140.906 81.318-25.434 0-128.153-59.298-140.906-81.354-11.881-20.529-11.881-142.178 0-162.707 12.753-22.019 115.472-81.281 140.906-81.281 25.434 0 128.153 59.298 140.906 81.318 11.881 20.529 11.881 142.178 0 162.706z" fill="white" fill-rule="nonzero" stroke="none" stroke-width="1" stroke-linecap="butt" stroke-linejoin="miter" stroke-miterlimit="10" stroke-dasharray="" stroke-dashoffset="0" font-family="none" font-weight="none" font-size="none" text-anchor="none" style="mix-blend-mode: normal"></path></g><g transform="matrix(1,0,0,1,48,146.0561149653122)"><svg viewBox="0 0 224 67.88777006937562" height="67.88777006937562" width="224"><g><svg viewBox="0 0 224 67.88777006937562" height="67.88777006937562" width="224"><g><svg viewBox="0 0 224 67.88777006937562" height="67.88777006937562" width="224"><g id="SvgjsG1164"><svg viewBox="0 0 224 67.88777006937562" height="67.88777006937562" width="224" id="SvgjsSvg1163"><g><svg viewBox="0 0 224 67.88777006937562" height="67.88777006937562" width="224"><path d="M223.476 14.561C222.422 7.514 219.421 5.555 219.421 5.555 210.207-1.703 198.707-0.139 188.377 0.904 170.137 0.946 151.972 2.497 133.775 3.328 95.58 3.455 57.059 1.369 19.053 6.513 15.483 8.092-3.704 6.823 0.635 15.463 1.772 19.056 5.921 23.045 5.795 26.343 6.364 26.921 7.154 25.596 7.49 26.427 8.67 28.668 10.597 27.611 12.177 28.936 9.976 32.473 11.555 35.419 13.061 38.505 10.408 39.309 7.006 38.928 5.479 41.592 5.321 43.523 4.468 43.156 3.531 43.072 2.846 43.015 1.467 43.227 1.699 43.833 2.488 45.904-0.902 47.102 1.225 49.132-0.239 51.33 2.236 53.233 1.899 55.615 1.857 56.094 2.088 56.503 2.457 56.615 4.089 57.222 1.709 58.405 1.962 59.688 18.706 68.454 36.871 62.394 54.026 66.425 58.48 63.606 55.131 67.425 56.911 66.833 58.301 66.143 59.312 69.004 60.881 67.383 61.123 66.918 60.755 65.819 61.618 66.03 62.071 66.143 62.471 66.114 62.535 65.466 62.629 64.494 61.797 65.1 61.576 64.592 63.967 62.027 63.377 68.13 65.62 67.876 65.515 67.129 64.862 66.058 66.199 66.199 67.526 65.128 67.568 64.24 68.748 66.65 68.79 67.171 69 67.538 69.337 67.792 73.023 65.17 76.688 68.722 80.553 67.538 82.922 66.241 85.197 68.243 87.598 67.749 88.44 67.355 89.293 66.65 90.104 67.834 100.034 68.088 110.618 67.031 120.032 67.876 145.19 66.298 172.075 68.524 198.602 66.439 204.857 65.635 211.355 64.494 217.452 63.578 217.452 63.578 222.391 61.069 222.391 49.794S223.444 39.929 223.602 30.951C223.76 21.974 224.497 21.607 223.444 14.561Z" opacity="1" fill="white"></path><g transform="matrix(1,0,0,1,31.584000000000003,19.1)"><svg width="160.832" viewBox="5.4 -36.75 201.78 37.25" height="29.687770069375617" data-palette-color="#000000"><path d="M5.4-33L17.05-33Q20.4-33 22.88-31.78 25.35-30.55 26.75-28.3 28.15-26.05 28.15-22.95L28.15-22.95Q28.15-19.85 26.75-17.6 25.35-15.35 22.88-14.13 20.4-12.9 17.05-12.9L17.05-12.9 9.4-12.9 9.4 0 5.4 0 5.4-33ZM9.4-16.65L16.45-16.65Q20.35-16.65 22.15-18.28 23.95-19.9 23.95-22.95L23.95-22.95Q23.95-26.05 22.15-27.65 20.35-29.25 16.45-29.25L16.45-29.25 9.4-29.25 9.4-16.65ZM45.5-25.5L45.5-25.5Q49.05-25.5 51.77-23.95 54.5-22.4 56.05-19.48 57.6-16.55 57.6-12.5L57.6-12.5Q57.6-8.45 56.05-5.53 54.5-2.6 51.77-1.05 49.05 0.5 45.5 0.5L45.5 0.5Q42 0.5 39.25-1.05 36.5-2.6 34.95-5.53 33.4-8.45 33.4-12.5L33.4-12.5Q33.4-16.55 34.95-19.48 36.5-22.4 39.25-23.95 42-25.5 45.5-25.5ZM45.5-22.05L45.5-22.05Q42.95-22.05 41.15-20.9 39.35-19.75 38.37-17.63 37.4-15.5 37.4-12.5L37.4-12.5Q37.4-9.55 38.37-7.4 39.35-5.25 41.15-4.1 42.95-2.95 45.5-2.95L45.5-2.95Q48.05-2.95 49.85-4.1 51.65-5.25 52.62-7.4 53.6-9.55 53.6-12.5L53.6-12.5Q53.6-15.5 52.62-17.63 51.65-19.75 49.85-20.9 48.05-22.05 45.5-22.05ZM69.15 0L65.15 0 65.15-25 68.4-25 68.95-20.9Q70-23.2 72.02-24.35 74.05-25.5 76.95-25.5L76.95-25.5Q77.59-25.5 78.37-25.4 79.15-25.3 79.7-25L79.7-25 79-21.35Q78.45-21.55 77.8-21.65 77.15-21.75 75.95-21.75L75.95-21.75Q74.4-21.75 72.82-20.85 71.25-19.95 70.2-18.13 69.15-16.3 69.15-13.5L69.15-13.5 69.15 0ZM87.44-31L91.44-32.1 91.44-6.9Q91.44-5.05 92.49-4.15 93.54-3.25 95.19-3.25L95.19-3.25Q96.64-3.25 97.69-3.75 98.74-4.25 99.59-5.1L99.59-5.1 100.99-1.75Q99.84-0.7 98.27-0.1 96.69 0.5 94.64 0.5L94.64 0.5Q92.74 0.5 91.09-0.18 89.44-0.85 88.47-2.33 87.49-3.8 87.44-6.2L87.44-6.2 87.44-31ZM82.44-25L100.54-25 100.54-21.55 82.44-21.55 82.44-25ZM116.64-36.75L116.64-36.75Q117.94-36.75 119.09-36.45 120.24-36.15 120.89-35.6L120.89-35.6 119.84-32.35Q119.24-32.75 118.54-32.93 117.84-33.1 116.99-33.1L116.99-33.1Q114.84-33.1 113.64-32.08 112.44-31.05 112.44-28.8L112.44-28.8 112.44-25 112.44-23.7 112.44 0 108.44 0 108.44-29.2Q108.44-30.85 108.94-32.25 109.44-33.65 110.47-34.65 111.49-35.65 113.04-36.2 114.59-36.75 116.64-36.75ZM103.44-25L120.79-25 120.79-21.55 103.44-21.55 103.44-25ZM136.49-25.5L136.49-25.5Q140.04-25.5 142.76-23.95 145.49-22.4 147.04-19.48 148.59-16.55 148.59-12.5L148.59-12.5Q148.59-8.45 147.04-5.53 145.49-2.6 142.76-1.05 140.04 0.5 136.49 0.5L136.49 0.5Q132.99 0.5 130.24-1.05 127.49-2.6 125.94-5.53 124.39-8.45 124.39-12.5L124.39-12.5Q124.39-16.55 125.94-19.48 127.49-22.4 130.24-23.95 132.99-25.5 136.49-25.5ZM136.49-22.05L136.49-22.05Q133.94-22.05 132.14-20.9 130.34-19.75 129.36-17.63 128.39-15.5 128.39-12.5L128.39-12.5Q128.39-9.55 129.36-7.4 130.34-5.25 132.14-4.1 133.94-2.95 136.49-2.95L136.49-2.95Q139.04-2.95 140.84-4.1 142.64-5.25 143.61-7.4 144.59-9.55 144.59-12.5L144.59-12.5Q144.59-15.5 143.61-17.63 142.64-19.75 140.84-20.9 139.04-22.05 136.49-22.05ZM155.94-36.5L159.94-36.5 159.94-6.35Q159.94-4.45 160.64-3.73 161.34-3 162.89-3L162.89-3Q163.89-3 164.54-3.15 165.19-3.3 166.29-3.7L166.29-3.7 165.64-0.2Q164.84 0.15 163.89 0.33 162.94 0.5 161.94 0.5L161.94 0.5Q158.89 0.5 157.41-1.15 155.94-2.8 155.94-6.2L155.94-6.2 155.94-36.5ZM173.43-29.8L173.43-29.8Q172.08-29.8 171.26-30.63 170.43-31.45 170.43-32.8L170.43-32.8Q170.43-34.15 171.26-34.98 172.08-35.8 173.43-35.8L173.43-35.8Q174.78-35.8 175.61-34.98 176.43-34.15 176.43-32.8L176.43-32.8Q176.43-31.45 175.61-30.63 174.78-29.8 173.43-29.8ZM171.43-25L175.43-25 175.43 0 171.43 0 171.43-25ZM195.08-25.5L195.08-25.5Q198.63-25.5 201.36-23.95 204.08-22.4 205.63-19.48 207.18-16.55 207.18-12.5L207.18-12.5Q207.18-8.45 205.63-5.53 204.08-2.6 201.36-1.05 198.63 0.5 195.08 0.5L195.08 0.5Q191.58 0.5 188.83-1.05 186.08-2.6 184.53-5.53 182.98-8.45 182.98-12.5L182.98-12.5Q182.98-16.55 184.53-19.48 186.08-22.4 188.83-23.95 191.58-25.5 195.08-25.5ZM195.08-22.05L195.08-22.05Q192.53-22.05 190.73-20.9 188.93-19.75 187.96-17.63 186.98-15.5 186.98-12.5L186.98-12.5Q186.98-9.55 187.96-7.4 188.93-5.25 190.73-4.1 192.53-2.95 195.08-2.95L195.08-2.95Q197.63-2.95 199.43-4.1 201.23-5.25 202.21-7.4 203.18-9.55 203.18-12.5L203.18-12.5Q203.18-15.5 202.21-17.63 201.23-19.75 199.43-20.9 197.63-22.05 195.08-22.05Z" opacity="1" transform="matrix(1,0,0,1,0,0)" fill="black" class="wordmark-text-0" id="SvgjsPath1162"></path></svg></g></svg></g></svg></g></svg></g><g></g></svg></g></svg></g></svg></g><defs><mask></mask></defs></svg><rect width="320" height="360" fill="black" stroke="none" visibility="hidden"></rect></g></mask><linearGradient x1="0" x2="1" y1="0.5" y2="0.5" id="53d36927-7ad3-464a-ac85-c780bd5901f4"><stop stop-color="#ffa62e" offset="0"></stop><stop stop-color="#f71b3d" offset="1"></stop></linearGradient></svg><rect width="320" height="360" fill="none" stroke="none" visibility="hidden"></rect></g></svg></g></svg>